<svg width="254" height="254" viewBox="0 0 254 254" fill="none" xmlns="http://www.w3.org/2000/svg">
<path d="M224.548 127.931H219.901V146.516H224.548V127.931Z" fill="#FEFFFF"/>
<path d="M178.084 60.7881H173.438V79.373H178.084V60.7881Z" fill="#FEFFFF"/>
<path d="M109.418 87.5038C120.324 87.5038 129.164 78.6629 129.164 67.7572C129.164 56.8516 120.324 48.0107 109.418 48.0107C98.5122 48.0107 89.6713 56.8516 89.6713 67.7572C89.6713 78.6629 98.5122 87.5038 109.418 87.5038Z" fill="black" stroke="#FEFFFF" stroke-width="6.96935"/>
<path d="M124.653 141.871C127.219 141.871 129.3 139.79 129.3 137.224C129.3 134.658 127.219 132.578 124.653 132.578C122.087 132.578 120.007 134.658 120.007 137.224C120.007 139.79 122.087 141.871 124.653 141.871Z" fill="#FEFFFF"/>
<path d="M127.274 250.547C195.356 250.547 250.547 195.356 250.547 127.274C250.547 59.1914 195.356 4 127.274 4C59.1914 4 4 59.1914 4 127.274C4 195.356 59.1914 250.547 127.274 250.547Z" fill="#BCBCBC" stroke="#8E654B" stroke-width="6.39817"/>
<path d="M91.9299 67.9867C90.5495 66.2448 86.3939 62.7178 80.8163 62.545C73.8423 62.3275 57.9348 68.2042 57.4998 70.3812C57.0631 72.5582 62.7287 86.0551 79.2903 87.3603M79.2903 87.3603C79.2903 87.7954 79.0728 89.4061 78.201 92.3669C77.1117 96.0682 72.3179 108.041 64.9088 113.047C58.9809 117.053 47.7665 126.036 42.8991 130.027C41.4468 131.042 38.9771 133.51 40.7206 135.251C42.8991 137.428 46.3861 143.088 46.1686 144.611C45.9495 146.136 43.9884 152.014 46.1686 155.061C47.9121 157.499 51.5431 157.382 53.141 157.02L60.3326 164.639C61.4218 165.365 64.8209 166.598 69.7027 165.727C75.8033 164.639 79.2903 159.85 86.9169 159.85C94.5436 159.85 99.339 163.332 109.581 163.332C117.774 163.332 130.137 155.642 135.293 151.795M79.2903 87.3603C78.8552 82.0642 79.3783 70.7731 84.9559 67.9867M84.9559 67.9867C79.3783 67.9867 72.4635 71.0338 69.7027 72.5582M84.9559 67.9867C91.9299 67.9867 101.518 67.5516 103.914 62.545C106.311 57.5369 111.542 49.7007 115.246 49.2656C118.951 48.8306 126.795 49.2656 129.845 49.2656C132.896 49.2656 138.563 50.5709 140.305 55.3599C141.7 59.1924 151.782 68.4217 156.649 72.5582M129.845 157.02L164.493 217.536M173.646 87.3603C180.329 90.9161 195.959 98.8978 205.026 102.38M146.19 76.9121C149.531 74.7351 157.303 70.3812 161.66 70.3812C167.108 70.3812 173.646 73.6459 173.646 76.9121C173.646 80.1768 176.261 88.8847 170.378 92.3669C164.493 95.8507 163.404 102.599 161.66 105.429C159.917 108.258 155.777 111.088 150.983 106.734M153.816 79.5242C156.795 78.6524 163.098 77.4336 164.493 79.5242C165.888 81.6132 163.186 88.9567 161.66 92.3669M153.816 87.3603C152.871 89.6093 151.55 94.675 153.816 96.9384M93.2367 89.7548C95.1978 86.9253 99.1646 80.3943 99.339 76.9121M103.914 92.3669L112.414 82.5713C113.866 80.975 118.079 78.131 123.308 79.5242M53.141 133.945C54.5934 135.396 58.7202 138.299 63.6004 138.299M72.9705 132.203L89.0971 113.047M72.9705 143.306L69.7027 153.102" stroke="#8A5F4F" stroke-width="5.57548"/>
<path d="M112.139 97.3591L117.137 99.9536L118.956 95.5836C119.511 96.1755 121.683 97.3591 125.925 97.3591C130.167 97.3591 132.44 93.6258 133.046 91.7591C131.834 90.7114 128.228 88.5632 123.5 88.3441C118.773 88.125 113.956 94.2624 112.139 97.3591Z" fill="#638BFF"/>
<path d="M191.762 168.019L195.351 164.905C198.912 169.887 205.739 172.075 208.706 172.547H217.609V166.32L228.953 174.105L217.609 182.455V176.228C216.843 176.511 213.674 176.908 207.126 176.228C200.579 175.548 194.155 170.473 191.762 168.019Z" fill="#638BFF"/>
</svg>
