<svg width="360" height="256" viewBox="0 0 360 256" fill="none" xmlns="http://www.w3.org/2000/svg">
<path d="M34.6746 14.3718C33.8118 13.283 31.2143 11.0783 27.7267 10.9695C23.3673 10.8335 13.4222 14.508 13.1498 15.8689C12.8773 17.2299 16.4194 25.6675 26.7731 26.484M26.7731 26.484C26.7731 26.7562 26.6369 27.7633 26.0919 29.6142C25.4108 31.9277 22.4137 39.4128 17.7817 42.5429C14.0762 45.047 7.06471 50.6631 4.02218 53.1582C3.11398 53.7933 1.57003 55.3356 2.65987 56.4244C4.02218 57.7853 6.20192 61.3237 6.06569 62.2764C5.92946 63.229 4.70336 66.9035 6.06569 68.8088C7.15556 70.333 9.42611 70.2604 10.4251 70.0336L14.9208 74.7969C15.602 75.2505 17.7272 76.0217 20.7789 75.4773C24.5934 74.7969 26.7731 71.8028 31.5413 71.8028C36.3094 71.8028 39.3065 73.9803 45.7095 73.9803C50.8319 73.9803 58.5608 69.1717 61.785 66.7674M26.7731 26.484C26.5006 23.1725 26.8276 16.1138 30.3152 14.3718M58.3792 70.0336L80.0402 107.867C80.4489 113.538 81.6205 125.668 83.0373 128.826C84.8084 132.772 91.3475 151.009 93.5273 153.186C95.707 155.364 105.107 164.482 110.284 164.346M103.609 133.861C105.561 137.399 109.467 145.619 109.467 150.192C109.467 154.765 112.918 169.517 114.643 176.322C115.552 178.817 117.368 184.079 117.368 185.168C117.368 186.529 117.368 191.973 117.368 195.511C117.368 199.049 119.139 215.925 118.73 219.191C118.403 221.804 118.594 226.54 118.73 228.581C117.368 231.076 114.643 236.42 114.643 237.836C114.643 239.605 103.609 243.552 103.609 251.309C103.609 253.758 125.542 253.758 125.542 253.758C127.177 252.307 130.228 248.56 129.357 245.185C128.267 240.966 128.403 241.374 129.357 240.285C130.31 239.197 134.67 239.469 134.533 238.652C134.424 237.999 133.307 234.66 132.762 233.072M132.762 233.072L136.168 230.487L137.258 205.718L133.852 199.185M132.762 233.072C131.346 230.786 131.082 227.946 131.128 226.812C131.128 223.591 131.128 215.925 131.128 211.025C131.128 206.126 132.944 201.091 133.852 199.185M133.852 199.185C134.261 187.935 135.296 164.89 136.168 162.713C137.258 159.991 139.983 152.506 139.438 148.423C138.893 144.34 131.945 134.814 130.174 133.861M137.258 161.624C140.304 161.008 146.251 159.953 150.022 159.719M298.558 194.83C294.471 193.47 292.155 183.126 290.384 183.807C289.127 184.29 281.847 184.523 277.176 184.601M287.251 151.145C287.251 153.413 287.387 158.575 287.932 161.08C288.613 164.21 299.239 181.902 299.375 183.807C299.512 185.712 298.558 214.428 298.558 215.108C298.558 215.789 297.332 221.096 296.514 222.729C295.697 224.363 289.839 232.12 288.885 235.658C287.932 239.197 289.158 241.238 286.024 241.782C282.891 242.327 277.033 245.593 275.535 251.581C274.853 254.303 287.932 253.762 287.932 253.762H298.558C299.512 252.628 301.419 250.628 301.419 249.54C301.419 248.179 299.92 243.143 301.419 242.463C302.917 241.782 307.277 244.096 307.549 241.782C307.767 239.931 307.64 231.938 307.549 228.173C308.276 224.998 309.92 218.293 310.683 216.877C311.636 215.108 314.225 206.943 314.361 204.085C314.497 201.227 320.764 188.978 323.08 186.801C325.396 184.624 323.08 180.677 323.08 178.772C323.08 177.247 321.082 173.6 320.083 171.967C320.083 170.747 320.02 168.712 319.826 166.753M342.561 67.8561L340.381 82.9624C340.199 84.0934 339.023 87.877 335.849 94.9219M337.248 48.1227C339.414 53.7786 343.411 68.8932 344.722 89.4959M85.762 26.484C89.9398 28.7069 99.7122 33.6969 105.38 35.8744C112.464 38.5963 125.133 39.5489 128.13 39.5489C131.128 39.5489 136.168 38.0519 139.438 37.7797C142.707 37.5075 147.612 38.3241 149.928 39.5489C152.244 40.7737 158.102 40.9098 162.597 40.2294C166.194 39.685 189.254 39.5489 200.334 39.5489C224.674 39.9572 274.472 40.7737 278.94 40.7737C284.526 40.7737 296.923 37.5075 299.375 36.8271C301.827 36.1466 307.004 36.9632 308.503 36.8271C310.001 36.691 315.451 35.7383 317.494 34.6496C319.538 33.5608 328.257 35.0579 331.663 35.7383C335.068 36.4188 344.06 40.7737 348.147 48.1227C352.234 55.4717 352.642 77.6548 352.642 81.7376C352.642 85.8203 350.735 123.246 349.918 124.198C349.1 125.151 350.599 148.015 350.735 149.512C350.871 151.009 355.13 157.784 356.048 159.855C357.711 163.606 358.468 173.464 357.956 176.594C357.691 178.209 356.639 181.629 356.048 183.126C355.536 182.705 354.936 182.191 354.283 181.607M20.7789 17.2297C22.5045 16.2771 26.8276 14.3718 30.3152 14.3718M30.3152 14.3718C34.6746 14.3718 40.6689 14.0996 42.1674 10.9695C43.666 7.83936 46.9356 2.94003 49.2515 2.66785C51.5675 2.39566 56.4719 2.66785 58.3792 2.66785C60.2864 2.66785 63.8285 3.48432 64.9183 6.47835C65.7902 8.87358 72.0933 14.644 75.1358 17.2297M68.5966 19.9515C70.6855 18.5907 75.5445 15.8689 78.2692 15.8689C81.675 15.8689 85.762 17.9101 85.762 19.9515C85.762 21.9929 87.3968 27.4368 83.7185 29.6142C80.0402 31.7916 79.359 36.0105 78.2692 37.7797C77.1793 39.5489 74.5909 41.3179 71.5938 38.5962M73.3648 21.5846C75.2266 21.0402 79.1683 20.2781 80.0402 21.5846C80.9121 22.8911 79.2228 27.482 78.2692 29.6142M73.3648 26.484C72.7744 27.8903 71.948 31.0567 73.3648 32.472M35.492 27.981C36.7181 26.2117 39.1976 22.1289 39.3065 19.9515M42.1674 29.6142L47.4805 23.4899C48.3887 22.4919 51.0226 20.7136 54.2922 21.5846M10.4251 55.6077C11.3334 56.515 13.9127 58.3296 16.9643 58.3296M22.8223 54.519L32.9036 42.5429M22.8223 61.4597L20.7789 67.5839M150.022 159.719C150.974 159.66 151.787 159.653 152.38 159.719C156.058 160.127 179.354 167.34 182.215 168.429C185.076 169.517 204.285 175.233 215.183 172.783C226.082 170.334 235.21 170.742 236.708 171.15C238.207 171.559 244.882 177.002 246.926 177.955C248.969 178.908 259.187 185.44 262.865 185.712C265.808 185.93 265.181 191.337 264.5 194.014C264.5 195.647 265.208 198.723 268.042 197.961C269.477 197.575 270.107 196.34 270.358 194.799M150.022 159.719C150.553 165.48 151.297 177.737 150.022 180.677C148.429 184.351 145.432 197.008 146.249 201.363C146.903 204.847 149.701 223.954 151.018 233.072L146.249 234.433V243.551L142.707 253.758M277.176 184.601C276.58 184.611 276.027 184.618 275.535 184.624C273.854 184.624 270.467 185.25 270.358 187.754C270.277 189.615 270.726 192.537 270.358 194.799M277.176 184.601V191.564C277.401 192.642 276.352 194.799 270.358 194.799M344.722 89.4959C344.978 93.5154 345.132 97.7437 345.15 102.151C345.259 129.152 345.74 136.991 345.967 137.536C346.603 140.53 347.684 146.817 346.921 148.015C346.336 148.933 344.674 154.408 343.917 159.855M344.722 89.4959L339.019 103.512M339.019 103.512L335.849 94.9219M339.019 103.512C339.927 107.459 341.471 116.441 340.381 120.796C339.019 126.24 335.849 137.399 335.849 141.346C335.849 142.491 335.863 143.716 335.957 144.975M335.849 94.9219C335.076 96.6366 334.185 98.5445 333.161 100.654C326.622 114.128 318.312 145.837 317.494 148.015C316.677 150.192 317.903 159.719 318.993 162.44C319.396 163.446 319.659 165.072 319.826 166.753M343.917 159.855C343.44 163.288 343.322 166.71 344.06 168.973C345.353 172.941 350.651 178.361 354.283 181.607M343.917 159.855C343.284 159.265 341.417 157.296 339.019 154.139C336.891 151.337 336.187 148.055 335.957 144.975M319.826 166.753C320.226 166.452 320.659 166.115 321.118 165.744M335.957 144.975C335.255 152.615 326.457 161.427 321.118 165.744M354.283 181.607C353.1 183.656 350.735 189.659 350.735 197.28C350.735 204.901 350.19 215.244 349.918 219.463V226.812L354.812 238.329C355.509 239.968 354.82 241.867 353.235 242.679V242.679C351.785 243.422 351.067 245.091 351.525 246.656L352.37 249.54L349.237 253.762H325.123L324.372 251.175C324.079 250.165 324.354 249.076 325.092 248.326L335.957 237.291C336.978 235.431 339.019 229.262 339.019 219.463C339.019 207.215 336.066 191.292 335.957 189.795C335.849 188.298 327.876 171.632 321.118 165.744" stroke="#8A5F4F" stroke-width="3.48567"/>
<path d="M47.3083 32.7346L50.434 34.3571L51.5706 31.6246C51.9179 31.9946 53.2756 32.7346 55.9277 32.7346C58.5798 32.7346 60.0006 30.4007 60.3795 29.2337C59.6218 28.579 57.3674 27.2355 54.4122 27.0989C51.457 26.9623 48.4449 30.7991 47.3083 32.7346Z" fill="#638BFF"/>
<path d="M183.238 67.486C188.908 62.3459 195.695 58.594 203.064 56.5265C210.432 54.4589 218.18 54.1323 225.697 55.5725C233.213 57.0126 240.292 60.18 246.374 64.8248C252.456 69.4695 257.376 75.4644 260.744 82.3362" stroke="#7C7A91" stroke-width="2.90472"/>
<path d="M264.549 115.047C262.623 123.497 258.506 131.292 252.612 137.647C246.719 144.003 239.256 148.695 230.975 151.252C222.693 153.81 213.884 154.142 205.433 152.217C196.982 150.291 189.187 146.175 182.831 140.282" stroke="#7C7A91" stroke-width="2.90472"/>
<path d="M264.357 92.2837C265.832 98.2829 266.168 104.505 265.347 110.628" stroke="#7C7A91" stroke-width="2.90472"/>
<path d="M67.2466 51.8173C71.8177 51.5563 82.83 52.7885 90.3099 59.805C99.6599 68.5756 112.906 86.7432 128.956 82.0446M66 61.3709C69.8439 61.4231 78.8094 62.7179 83.9208 67.4791C90.3099 73.4306 97.4783 84.0807 100.595 87.5263C103.712 90.9719 111.036 98.4896 118.204 101.152C125.372 103.815 130.671 105.381 133.164 106.947C135.159 108.2 137.631 110.393 138.618 111.332" stroke="#7C7A91" stroke-width="2.90472"/>
<path d="M66 58.7086V56.1426L71.1171 56.6735L70.3989 59.682L66 58.7086Z" fill="#638BFF"/>
<path d="M74.1695 60.3013L74.8877 57.8238L79.4662 59.2395L78.2094 61.6286L74.1695 60.3013Z" fill="#638BFF"/>
<path d="M82.0697 63.2213L83.5061 61.0977L87.2767 64.0177L85.5709 66.0528L82.0697 63.2213Z" fill="#638BFF"/>
<path d="M89.6108 69.2382L91.5859 67.3801L94.5485 70.477L92.2143 72.2467L89.6108 69.2382Z" fill="#638BFF"/>
<path d="M96.0746 76.2285L98.319 74.4588L100.833 77.4673L98.319 79.237L96.0746 76.2285Z" fill="#638BFF"/>
<path d="M103.975 80.8297L101.82 82.7763L104.603 85.7848L106.489 83.8381L103.975 80.8297Z" fill="#638BFF"/>
<path d="M108.105 89.2357L110.349 87.289C112.575 90.4037 116.843 91.7722 118.698 92.0672H124.264V88.1739L131.356 93.0405L124.264 98.2611V94.3678C123.785 94.5447 121.804 94.7925 117.71 94.3678C113.617 93.943 109.601 90.7694 108.105 89.2357Z" fill="#638BFF"/>
<rect x="214.952" y="67.7615" width="2.90472" height="11.6189" fill="#00ED95"/>
<rect x="214.952" y="108.286" width="2.90472" height="11.6189" fill="#00ED95"/>
<rect x="214.952" y="128.619" width="2.90472" height="11.6189" fill="#FF395D"/>
<rect x="187.357" y="108.286" width="2.90472" height="11.6189" fill="#FF395D"/>
<rect x="242.547" y="108.286" width="2.90472" height="11.6189" fill="#638BFF"/>
<rect x="200.428" y="96.8087" width="2.90472" height="11.6189" fill="#00ED95"/>
<rect x="200.428" y="118.452" width="2.90472" height="11.6189" fill="#638BFF"/>
<rect x="229.476" y="96.8087" width="2.90472" height="11.6189" fill="#00ED95"/>
<rect x="229.476" y="118.452" width="2.90472" height="11.6189" fill="#FEFFFF"/>
<rect x="200.428" y="76.4757" width="2.90472" height="11.6189" fill="#FEFFFF"/>
<path d="M258.523 88.0945H274.353C277.562 88.0945 280.163 85.4936 280.163 82.2851V66.9357C280.163 64.1833 282.394 61.952 285.146 61.952V61.952C287.899 61.952 290.13 64.1833 290.13 66.9357V82.783C290.13 85.7165 292.508 88.0945 295.442 88.0945V88.0945C298.375 88.0945 300.753 85.7165 300.753 82.783V67.1324C300.753 64.2714 303.072 61.952 305.934 61.952V61.952C308.795 61.952 311.114 64.2714 311.114 67.1324V83.0453C311.114 85.8339 313.375 88.0945 316.163 88.0945V88.0945C318.952 88.0945 321.212 85.8339 321.212 83.0453V67.7615C321.212 64.553 323.813 61.952 327.022 61.952H336.95" stroke="#FF395D" stroke-width="2.90472"/>
<rect x="214.952" y="88.0946" width="2.90472" height="11.6189" fill="#638BFF"/>
<rect x="242.547" y="88.0946" width="2.90472" height="11.6189" fill="#FF395D"/>
<rect x="187.357" y="88.0946" width="2.90472" height="11.6189" fill="#638BFF"/>
<rect x="229.476" y="76.4757" width="2.90472" height="11.6189" fill="#638BFF"/>
<circle cx="160.404" cy="80.8327" r="12.3451" stroke="#FEFFFF" stroke-width="4.35709"/>
<circle cx="160.404" cy="80.8328" r="19.6069" stroke="#638BFF" stroke-width="4.35709"/>
<path d="M163.171 106.304C167.532 106.925 171.557 108.998 174.596 112.186C177.636 115.375 179.512 119.494 179.924 123.88" stroke="#00ED95" stroke-width="4.35709"/>
<path d="M179.843 128.272C179.369 131.873 177.904 135.271 175.612 138.088C173.32 140.905 170.291 143.031 166.862 144.227C163.433 145.423 159.739 145.643 156.192 144.863C152.645 144.083 149.384 142.333 146.774 139.809C144.163 137.284 142.305 134.084 141.406 130.565C140.508 127.046 140.604 123.347 141.685 119.88C142.765 116.413 144.788 113.314 147.527 110.929C150.265 108.543 153.613 106.966 157.195 106.371" stroke="#00ED95" stroke-width="4.35709"/>
<circle cx="291.927" cy="118.594" r="19.6069" stroke="#FF395D" stroke-width="4.35709"/>
<path d="M276.464 112.643L264.332 109.48L265.483 106.833L277.404 109.761L276.464 112.643Z" fill="#7C7A91"/>
<path d="M274.062 119.067L261.6 116.655L262.285 114.038L274.685 116.409L274.062 119.067Z" fill="#7C7A91"/>
<rect x="284.476" y="103.929" width="14.5236" height="2.90472" fill="#638BFF"/>
<rect x="284.476" y="130.071" width="14.5236" height="2.90472" fill="#FF395D"/>
<rect x="277.215" y="109.738" width="27.5949" height="2.90472" fill="#638BFF"/>
<rect x="277.215" y="125.714" width="27.5949" height="2.90472" fill="#FF395D"/>
<rect x="275.762" y="119.905" width="31.952" height="2.90472" fill="#FF395D"/>
<rect x="275.762" y="114.095" width="31.952" height="2.90472" fill="#FF395D"/>
<rect x="156.046" y="99.7135" width="2.90472" height="11.6189" fill="#638BFF"/>
<rect x="178.643" y="130.071" width="2.90472" height="8.71417" transform="rotate(-90 178.643 130.071)" fill="#00ED95"/>
<rect x="161.856" y="99.7135" width="2.90472" height="11.6189" fill="#638BFF"/>
<rect x="178.643" y="124.262" width="2.90472" height="8.71417" transform="rotate(-90 178.643 124.262)" fill="#00ED95"/>
<circle cx="160.404" cy="117" r="2.90472" fill="#3854A5"/>
<circle cx="151.689" cy="124.262" r="2.90472" fill="#00ED95"/>
<circle cx="160.404" cy="134.428" r="2.90472" fill="#FF395D"/>
<circle cx="169.929" cy="124.262" r="2.90472" fill="#FEFFFF"/>
</svg>
